<?xml version="1.0" standalone="no"?>
<!DOCTYPE svg PUBLIC "-//W3C//DTD SVG 20010904//EN"
 "http://www.w3.org/TR/2001/REC-SVG-20010904/DTD/svg10.dtd">
<svg version="1.0" xmlns="http://www.w3.org/2000/svg"
 width="260.000000pt" height="323.000000pt" viewBox="0 0 260.000000 323.000000"
 preserveAspectRatio="xMidYMid meet">

<g transform="translate(0.000000,323.000000) scale(0.100000,-0.100000)"
fill="#000000" stroke="none">
<path d="M1655 3145 c-147 -26 -402 -115 -390 -135 2 -4 36 -26 75 -49 l71
-42 77 25 c116 38 217 57 313 57 223 0 358 -87 429 -275 l10 -28 28 18 c15 10
46 29 69 42 24 13 45 27 48 32 8 14 -22 85 -65 154 -63 99 -177 173 -315 202
-76 17 -258 16 -350 -1z"/>
<path d="M513 3075 c-100 -22 -190 -72 -263 -145 -122 -121 -164 -242 -165
-465 0 -200 21 -284 166 -653 117 -300 148 -420 199 -792 38 -274 89 -491 151
-648 35 -88 109 -235 116 -228 2 2 -9 45 -26 95 -57 169 -90 399 -121 841 -28
396 -54 545 -130 750 -112 300 -140 414 -140 580 0 119 18 195 63 273 38 65
128 142 192 166 226 85 563 32 908 -140 65 -33 121 -58 124 -56 7 8 -161 157
-249 220 -98 71 -273 157 -378 187 -98 29 -352 37 -447 15z"/>
<path d="M610 2315 l0 -275 54 0 c65 0 66 2 66 138 l0 92 41 0 c50 0 77 -25
160 -149 l54 -80 68 -1 c37 0 67 2 67 5 0 15 -122 185 -149 208 -17 14 -31 28
-31 30 0 3 14 7 31 11 17 3 46 21 64 39 80 80 46 216 -61 246 -21 6 -112 11
-201 11 l-163 0 0 -275z m324 164 c32 -25 34 -64 4 -96 -20 -21 -30 -23 -118
-23 l-96 0 3 68 c1 37 3 68 3 70 0 1 40 2 89 2 74 0 92 -3 115 -21z"/>
<path d="M2390 2539 l0 -50 53 3 52 3 3 48 3 47 -55 0 -56 0 0 -51z"/>
<path d="M1298 2435 c-87 -28 -148 -132 -133 -227 21 -129 142 -204 275 -168
66 17 136 92 145 155 10 66 1 116 -29 162 -51 77 -159 109 -258 78z m145 -101
c47 -47 48 -144 2 -190 -36 -36 -97 -33 -136 5 -26 26 -29 36 -29 91 0 55 3
65 29 91 40 39 97 41 134 3z"/>
<path d="M1847 2436 c-21 -8 -47 -22 -58 -32 -18 -16 -19 -16 -19 9 0 26 -3
27 -50 27 l-50 0 0 -200 0 -200 54 0 54 0 4 141 c3 140 3 141 31 165 33 29 68
31 90 6 14 -16 17 -43 17 -165 l0 -147 55 0 55 0 0 123 c0 96 4 129 18 157 22
45 61 60 96 36 l26 -16 0 -150 0 -150 55 0 55 0 0 164 c0 161 0 165 -25 195
-50 58 -137 64 -203 14 l-33 -25 -22 20 c-24 23 -69 42 -95 42 -9 -1 -34 -7
-55 -14z"/>
<path d="M2390 2240 l0 -200 55 0 55 0 0 200 0 200 -55 0 -55 0 0 -200z"/>
<path d="M610 1836 l0 -96 55 0 c72 0 105 28 105 89 0 61 -31 91 -102 98 l-58
6 0 -97z m108 42 c17 -17 15 -74 -4 -93 -9 -9 -28 -15 -43 -13 -24 3 -26 7
-29 61 l-3 57 34 0 c18 0 38 -5 45 -12z"/>
<path d="M810 1835 l0 -95 75 0 c59 0 75 3 75 15 0 10 -15 15 -57 17 -52 3
-58 5 -59 26 -1 20 3 22 47 22 36 0 49 4 49 14 0 11 -14 16 -47 18 -36 2 -49
7 -51 21 -3 14 5 17 52 17 48 0 56 3 56 19 0 16 -9 18 -70 20 l-70 2 0 -96z"/>
<path d="M990 1835 c0 -88 2 -95 20 -95 16 0 19 8 22 58 l3 57 35 -57 c26 -44
40 -58 58 -58 22 0 23 2 20 92 -3 78 -6 93 -20 96 -14 3 -17 -7 -20 -60 l-3
-63 -38 63 c-26 41 -45 62 -58 62 -17 0 -19 -8 -19 -95z"/>
<path d="M1180 1910 c0 -16 7 -20 31 -20 l31 0 -4 -75 c-3 -66 -1 -75 15 -75
15 0 17 10 17 75 l0 75 30 0 c23 0 30 4 30 20 0 18 -7 20 -75 20 -68 0 -75 -2
-75 -20z"/>
<path d="M1383 1893 c-8 -21 -26 -63 -38 -93 -21 -49 -22 -55 -7 -59 9 -2 23
6 30 18 20 29 91 30 99 1 3 -13 14 -20 28 -20 23 0 23 1 -18 95 -46 109 -67
121 -94 58z m51 -45 c9 -35 8 -38 -19 -38 -29 0 -29 0 -13 35 14 31 24 32 32
3z"/>
<path d="M1802 1914 c-24 -17 -29 -56 -9 -72 6 -5 31 -15 55 -22 32 -8 42 -16
40 -28 -4 -22 -51 -28 -68 -8 -14 18 -50 22 -50 6 0 -25 41 -50 83 -50 48 0
77 22 77 57 0 25 -16 39 -66 57 -21 7 -39 19 -39 27 0 20 44 24 51 5 8 -20 44
-21 44 -2 0 20 -39 46 -70 46 -14 0 -36 -7 -48 -16z"/>
<path d="M1989 1901 c-39 -39 -41 -100 -4 -136 33 -34 93 -34 123 -2 27 28 27
33 4 39 -12 3 -24 -2 -31 -13 -6 -11 -20 -19 -30 -19 -52 0 -71 86 -26 116 23
15 27 15 50 0 50 -33 75 -13 29 23 -38 30 -80 27 -115 -8z"/>
<path d="M2187 1841 c-20 -50 -37 -93 -37 -96 0 -15 40 -2 45 15 5 16 15 20
50 20 35 0 45 -4 50 -20 6 -18 46 -30 44 -12 0 4 -17 45 -38 92 -52 119 -66
119 -114 1z m83 -27 c0 -2 -11 -4 -25 -4 -28 0 -30 8 -13 45 l12 26 13 -32 c7
-17 13 -33 13 -35z"/>
<path d="M2370 1835 c0 -76 3 -95 15 -95 10 0 15 15 17 58 l3 57 39 -57 c24
-36 46 -58 57 -58 17 0 19 9 19 95 0 76 -3 95 -15 95 -10 0 -15 -16 -17 -62
l-3 -63 -43 63 c-61 89 -72 84 -72 -33z"/>
<path d="M1540 1830 l0 -90 70 0 c56 0 70 3 70 15 0 11 -12 15 -50 15 l-50 0
0 75 c0 68 -2 75 -20 75 -19 0 -20 -7 -20 -90z"/>
<path d="M2146 1643 c-10 -30 -44 -349 -56 -513 -30 -428 -70 -678 -147 -913
-14 -43 -23 -80 -21 -83 8 -7 85 137 128 240 65 152 103 325 160 717 28 195
59 394 70 443 11 49 19 90 17 91 -1 1 -29 7 -62 15 -33 7 -65 15 -72 17 -6 2
-14 -4 -17 -14z"/>
<path d="M1199 1337 c-47 -13 -89 -38 -207 -120 -119 -83 -199 -74 -304 37
l-58 60 0 -62 c0 -116 21 -417 41 -597 33 -295 77 -483 126 -537 23 -26 70
-23 96 6 37 40 49 106 82 443 26 263 83 457 161 543 65 72 139 89 221 49 122
-59 208 -284 272 -714 25 -165 50 -294 61 -314 25 -45 24 417 -1 614 -36 288
-146 509 -286 575 -56 26 -145 34 -204 17z"/>
</g>
</svg>
